<svg xmlns="http://www.w3.org/2000/svg" x="0px" y="0px"
     width="24" height="24"
     viewBox="0 0 172 172"
     style=" fill:#000000;">
    <g transform="translate(4.73,4.73) scale(0.945,0.945)">
        <g fill="none" fill-rule="nonzero" stroke="none" stroke-width="none" stroke-linecap="butt"
           stroke-linejoin="none" stroke-miterlimit="10" stroke-dasharray="" stroke-dashoffset="0" font-family="none"
           font-weight="none" font-size="none" text-anchor="none" style="mix-blend-mode: normal">
            <g fill="#ffffff" stroke="#ffffff" stroke-width="10" stroke-linejoin="round">
                <path d="M86,75.86589l52.26628,-52.26628l10.13411,10.13411l-52.26628,52.26628l52.26628,52.26628l-10.13411,10.13411l-52.26628,-52.26628l-52.26628,52.26628l-10.13411,-10.13411l52.26628,-52.26628l-52.26628,-52.26628l10.13411,-10.13411z"></path>
            </g>
            <path d="M0,172v-172h172v172z" fill="none" stroke="none" stroke-width="1" stroke-linejoin="miter"></path>
            <g fill="#ffffff" stroke="none" stroke-width="1" stroke-linejoin="miter">
                <path d="M33.73372,23.59961l-10.13411,10.13411l52.26628,52.26628l-52.26628,52.26628l10.13411,10.13411l52.26628,-52.26628l52.26628,52.26628l10.13411,-10.13411l-52.26628,-52.26628l52.26628,-52.26628l-10.13411,-10.13411l-52.26628,52.26628z"></path>
            </g>
            <path d="" fill="none" stroke="none" stroke-width="1" stroke-linejoin="miter"></path>
            <path d="" fill="none" stroke="none" stroke-width="1" stroke-linejoin="miter"></path>
        </g>
    </g>
</svg>
